<?xml version="1.0" encoding="UTF-8"?>
<svg id="Capa_1" xmlns="http://www.w3.org/2000/svg" version="1.1" viewBox="0 0 48 48">
  <!-- Generator: Adobe Illustrator 30.3.0, SVG Export Plug-In . SVG Version: 2.1.3 Build 182)  -->
  <defs>
    <style>
      .st0 {
        fill: #c8ff01;
      }

      .st1 {
        fill: #999;
      }
    </style>
  </defs>
  <circle class="st1" cx="24" cy="24" r="22.8"/>
  <g>
    <path class="st0" d="M33.1,12c-4.4-.1-8.3,1.8-10.5,5.7-3.2,6-1,13.9,5.6,16.3s3.1.9,4.8.8v3.2c0,1.8-1.4,3.1-3.2,3.2h-15.2c-1.8,0-3.2-1.4-3.2-3.2V8.9c0-1.8,1.4-3.2,3.2-3.2h3.2s0,1.2,0,1.2c0,1.1.8,2,1.9,2h5.1c1,0,1.8-.9,1.8-1.8v-1.4s3.2,0,3.2,0c1.7,0,3.2,1.4,3.2,3.2v3.2Z"/>
    <path class="st0" d="M40,30.2c-3.8,4.2-10.2,4.5-14.3.7-4.3-3.9-4.4-10.5-.3-14.6,3.9-3.9,10.2-4,14.2-.1,3.9,3.8,4.1,10,.5,14ZM35.4,27.9c1.7,0,2.9-1.4,2.6-3,1-.8,1.4-2.1,1-3.4-.3-.9-.8-1.7-1.7-2.2-1.4-.7-3-.4-4,.7-2.2-.8-4.5.5-4.9,2.7-1.4,0-2.5,1.2-2.5,2.6s1.1,2.5,2.5,2.5h7Z"/>
    <path class="st0" d="M24.9,7.6h-5.1c-.4,0-.6-.3-.6-.6v-1.3s6.3,0,6.3,0v1.3c0,.4-.3.6-.6.6Z"/>
    <path class="st0" d="M35.6,26.6h-7.4c-.8,0-1.2-.8-1.1-1.4.2-1.4,1.7-.9,2.2-1.2s.3-.4.3-.6c0-1.3,1.1-2.3,2.4-2.3s2.3.9,2.3,2.3.1.5.2.6c.4.4,1.9-.2,2.2,1.2s-.3,1.5-1.1,1.5Z"/>
    <path class="st0" d="M35.5,22.8c-.2-.8-.6-1.5-1.1-2,.9-.8,2.1-.7,2.9,0s.9,2,.1,2.8c-.5-.5-1.1-.8-1.8-.9Z"/>
  </g>
</svg>